<svg xmlns="http://www.w3.org/2000/svg" viewBox="0 0 111.71 132.68"><defs><style>.cls-1{fill:#ed1c24;}.cls-2{fill:#fff;}</style></defs><title>mdx-logoAsset 2</title><g id="Layer_2" data-name="Layer 2"><g id="Layer_1-2" data-name="Layer 1"><path class="cls-1" d="M111.32,4.45,55.34,0,.39,4.25S0,16.75,0,32.23c0,79.32,55.68,100.45,55.68,100.45s56-20.93,56-100.25c0-15.48-.39-28-.39-28"/><path class="cls-2" d="M57.64,50.66c-10.88,0-20.75,3.68-24.78,5.41a4.47,4.47,0,0,1-.07-3,1.81,1.81,0,0,0-.15-3.61,1.09,1.09,0,0,0-.26,0l-.29.06-.28.11-.11.05-.2.16-.19.16c-.6.57-2.41,2.66-1.35,6.6a2.35,2.35,0,0,0-1.29,1.63,2.07,2.07,0,0,0-1.77-.15,2.31,2.31,0,0,0-1.31,1.68,2.06,2.06,0,0,0-1.79-.19,2.26,2.26,0,0,0-1.3,1.72,2,2,0,0,0-1.8-.22,2.23,2.23,0,0,0-1.27,1.77,2,2,0,0,0-1.84-.28c-1.15.46-1.6,2.15-1,3.77s2,2.56,3.2,2.09A2.11,2.11,0,0,0,21,66.84a2.09,2.09,0,0,0,2,.36,2.22,2.22,0,0,0,1.22-1.54,2.12,2.12,0,0,0,2,.3,2.22,2.22,0,0,0,1.23-1.51,2.16,2.16,0,0,0,2,.26,2.26,2.26,0,0,0,1.25-1.46,2.23,2.23,0,0,0,1.94.22,1.66,1.66,0,0,0,.32-.17,3.92,3.92,0,0,1-.17,2.91h-.06A1.82,1.82,0,0,0,30.82,68a1.78,1.78,0,0,0,2.66,1.57l.13,0a5.3,5.3,0,0,0,2.22-3.34,8,8,0,0,0-.33-4.43,55.93,55.93,0,0,1,15.14-2.16,41.14,41.14,0,0,1,15.71,2.8c1.64-2.75,4.41-4.1,6.44-3s2.53,4.42,1.14,7.44l3,3H95V69.5c0-2.92-6.5-18-37.39-18.84"/><path class="cls-2" d="M57.42,76.51h-.54c-7,0-15.86,2.93-19.63,4.32a3.77,3.77,0,0,1-.11-2.51A1.54,1.54,0,0,0,37,75.25a1.3,1.3,0,0,0-.22,0,1.11,1.11,0,0,0-.25,0,1.16,1.16,0,0,0-.22.1l-.11,0-.18.14-.14.13c-.67.62-2.06,2.38-1.07,5.68a.87.87,0,0,0-.19,0,2,2,0,0,0-1.12,1.35A1.81,1.81,0,0,0,32,82.73a2,2,0,0,0-1.12,1.37A1.75,1.75,0,0,0,29.42,84a1.91,1.91,0,0,0-1.1,1.42,1.69,1.69,0,0,0-1.5-.16,1.86,1.86,0,0,0-1.06,1.45,1.57,1.57,0,0,0-2.43.73,3.18,3.18,0,0,0,0,2.29c.51,1.37,1.75,2.18,2.73,1.78a1.78,1.78,0,0,0,1-1.32,1.78,1.78,0,0,0,1.67.28,1.81,1.81,0,0,0,1-1.28,1.81,1.81,0,0,0,1.66.24,1.85,1.85,0,0,0,1-1.23,1.85,1.85,0,0,0,1.63.19,1.92,1.92,0,0,0,1-1.2,1.88,1.88,0,0,0,1.62.16,1.83,1.83,0,0,0,.42-.26A2.94,2.94,0,0,1,37,89h0A1.54,1.54,0,1,0,37,92a1.57,1.57,0,0,0,.72-.2l.1,0A4.54,4.54,0,0,0,39.65,89a5.81,5.81,0,0,0-.16-3.21,46.35,46.35,0,0,1,12.86-1.95,27.61,27.61,0,0,1,10.37,1.74c1.58-2.53,4.17-3.74,6-2.7s2.37,3.83,1.33,6.55L72.86,92H87.39v-.33c0-2.34-5.21-14.42-30-15.13"/><path class="cls-2" d="M56.86,99h-.25A39.27,39.27,0,0,0,42.26,102l-.39.14a2.44,2.44,0,0,1-.12-2.1,1.35,1.35,0,0,0-.18-2.69.74.74,0,0,0-.18,0,1.2,1.2,0,0,0-.23,0l-.18.07-.08,0-.17.12-.14.13c-.43.4-1.73,1.91-.92,4.75h0a1.58,1.58,0,0,0-.89,1.06,1.44,1.44,0,0,0-1.16-.07,1.56,1.56,0,0,0-.89,1.09,1.4,1.4,0,0,0-1.17-.1,1.58,1.58,0,0,0-.88,1.11,1.38,1.38,0,0,0-1.18-.12,1.53,1.53,0,0,0-.86,1.14,1.3,1.3,0,0,0-1.2-.14,1.34,1.34,0,0,0-.74.77,2.57,2.57,0,0,0,0,1.87c.42,1.12,1.43,1.79,2.25,1.45a1.43,1.43,0,0,0,.81-1,1.43,1.43,0,0,0,1.31.19,1.49,1.49,0,0,0,.82-1A1.36,1.36,0,0,0,38,108a1.43,1.43,0,0,0,1.29.14,1.53,1.53,0,0,0,.84-.93,1.49,1.49,0,0,0,1.28.1,1.19,1.19,0,0,0,.25-.13,2.51,2.51,0,0,1-.11,1.73,1.35,1.35,0,0,0,0,2.7,1.32,1.32,0,0,0,.62-.17l.1-.05A3.74,3.74,0,0,0,43.88,109a4.91,4.91,0,0,0-.16-2.85,35.41,35.41,0,0,1,9.63-1.45,20.1,20.1,0,0,1,6.82,1c1.34-2,3.42-2.85,4.94-2s2,3.08,1.22,5.3l2.08,1.76h11v-.34c0-2.34-4-11-22.55-11.43"/><path class="cls-2" d="M55.68,35.57c-6.29,0-11.22-1.06-11.22-2.43,0-1.67,5.63-2.43,11.22-2.43,5.39,0,11.21.77,11.21,2.43,0,1.37-4.93,2.43-11.21,2.43M72.38,15a2.37,2.37,0,0,0-1-.24,2.47,2.47,0,0,0-2.24,1.48,2.7,2.7,0,0,0-.23,1l-1.33.5.89,2.55c-1,1.85-2.24,3.69-3,4.74A31.58,31.58,0,0,0,58,23.66c-.16-.89-.69-4-1-6.95l1.86-1.91-1-1.05a2.49,2.49,0,1,0-4.75-1,2.56,2.56,0,0,0,.2,1l-1,1.05,1.85,1.91c-.26,2.87-.83,6.07-1,7A27.27,27.27,0,0,0,45.86,25c-.7-1-1.88-2.87-2.94-4.74l.89-2.55-1.34-.5a2.51,2.51,0,0,0-.22-1A2.47,2.47,0,0,0,40,14.73,2.37,2.37,0,0,0,39,15a2.61,2.61,0,0,0-1.19,3.41,2.43,2.43,0,0,0,.57.81l-.49,1.38,2.47.94c1,2.26,2.38,11.52,2.4,11.62.48,2.75,5.92,4.74,13,4.74s12.43-1.95,12.92-4.74c.06-.34.14-.86.24-1.51.46-2.94,1.3-8.35,2.16-10.1l2.48-.95L73,19.19a2.3,2.3,0,0,0,.57-.81A2.61,2.61,0,0,0,72.38,15"/></g></g></svg>