<svg xmlns="http://www.w3.org/2000/svg" width="48" height="54.829" viewBox="0 0 48 54.829">
  <g id="Component_26_1" data-name="Component 26 – 1" transform="translate(0)">
    <path id="Path_37" data-name="Path 37" d="M79.8,40.06,55.744,38.219,32.132,39.977s-.166,5.163-.166,11.562c0,32.778,23.924,41.509,23.924,41.509S79.966,84.4,79.966,51.622c0-6.4-.167-11.562-.167-11.562" transform="translate(-31.966 -38.219)" fill="#ed1d24"/>
    <path id="Path_62" data-name="Path 62" d="M55.334,55.076A29.466,29.466,0,0,0,44.681,57.31a1.767,1.767,0,0,1-.024-1.247.749.749,0,0,0-.07-1.5.4.4,0,0,0-.107.019.92.92,0,0,0-.127.025.686.686,0,0,0-.12.047l-.046.02a.824.824,0,0,0-.086.064.8.8,0,0,0-.082.07,2.568,2.568,0,0,0-.58,2.724.985.985,0,0,0-.554.673.934.934,0,0,0-.761-.064.973.973,0,0,0-.565.7.913.913,0,0,0-.767-.08.939.939,0,0,0-.556.713.889.889,0,0,0-.777-.095.924.924,0,0,0-.542.736.868.868,0,0,0-.791-.12,1.358,1.358,0,0,0,.941,2.424.882.882,0,0,0,.511-.664.922.922,0,0,0,.861.15.9.9,0,0,0,.522-.637.944.944,0,0,0,.848.124.921.921,0,0,0,.531-.624.957.957,0,0,0,.841.109.94.94,0,0,0,.537-.606.981.981,0,0,0,.836.092.7.7,0,0,0,.132-.069,1.551,1.551,0,0,1-.072,1.2.089.089,0,0,0-.026,0,.755.755,0,1,0,.365,1.4l.052-.02a2.226,2.226,0,0,0,.958-1.381,3.221,3.221,0,0,0-.142-1.831,24.8,24.8,0,0,1,6.5-.895,18.305,18.305,0,0,1,6.751,1.157c.7-1.138,1.9-1.693,2.764-1.235.888.47,1.092,1.824.495,3.073L63.642,63H71.4v-.137c0-1.207-2.793-7.415-16.065-7.782" transform="translate(-30.565 -34.14)" fill="#fff"/>
    <path id="Path_63" data-name="Path 63" d="M54.652,63.628l-.23,0a28.966,28.966,0,0,0-8.434,1.786,1.472,1.472,0,0,1-.046-1.037.636.636,0,0,0-.072-1.27.368.368,0,0,0-.092.015.493.493,0,0,0-.109.021.558.558,0,0,0-.094.037l-.047.019s-.035.025-.076.057a.5.5,0,0,0-.062.055,2.117,2.117,0,0,0-.461,2.345.482.482,0,0,0-.079.024.841.841,0,0,0-.482.557.8.8,0,0,0-.631-.041.823.823,0,0,0-.479.57.78.78,0,0,0-.634-.054.8.8,0,0,0-.474.584.761.761,0,0,0-.642-.066.78.78,0,0,0-.457.6.734.734,0,0,0-.657-.086.706.706,0,0,0-.386.385,1.257,1.257,0,0,0,.013.95,1.008,1.008,0,0,0,1.175.735.739.739,0,0,0,.43-.545.786.786,0,0,0,.718.112.745.745,0,0,0,.432-.525.8.8,0,0,0,.714.1.77.77,0,0,0,.449-.509.8.8,0,0,0,.7.079.8.8,0,0,0,.454-.5.833.833,0,0,0,.7.066.722.722,0,0,0,.182-.1,1.152,1.152,0,0,1-.089.782h-.009a.638.638,0,1,0,0,1.276.685.685,0,0,0,.31-.082l.042-.017a1.839,1.839,0,0,0,.8-1.145,2.313,2.313,0,0,0-.067-1.327,20.572,20.572,0,0,1,5.525-.8,12.365,12.365,0,0,1,4.458.717,2.137,2.137,0,0,1,2.6-1.115,2.113,2.113,0,0,1,.57,2.708l1.185,1.037H67.53V69.88c0-.968-2.238-5.959-12.878-6.253" transform="translate(-29.981 -32.009)" fill="#fff"/>
    <path id="Path_64" data-name="Path 64" d="M53.779,71.1h-.1a17.458,17.458,0,0,0-6.165,1.221l-.17.059a.988.988,0,0,1-.05-.868.558.558,0,0,0-.077-1.113.217.217,0,0,0-.075.014.581.581,0,0,0-.1.019c-.03.011-.06.023-.075.03l-.035.015c-.009.005-.035.022-.074.051l-.06.051a1.819,1.819,0,0,0-.4,1.967l-.011,0a.674.674,0,0,0-.384.437.64.64,0,0,0-.5-.028.658.658,0,0,0-.381.449.617.617,0,0,0-.5-.039.645.645,0,0,0-.377.459.607.607,0,0,0-.507-.049.633.633,0,0,0-.372.467.592.592,0,0,0-.511-.057.582.582,0,0,0-.322.32,1.018,1.018,0,0,0,.01.773.825.825,0,0,0,.97.6.6.6,0,0,0,.349-.419.62.62,0,0,0,.559.077.61.61,0,0,0,.354-.41.636.636,0,0,0,.556.068.617.617,0,0,0,.357-.4.608.608,0,0,0,.913-.324.68.68,0,0,0,.551.041.875.875,0,0,0,.107-.056,1.013,1.013,0,0,1-.047.716.558.558,0,1,0,.007,1.116.576.576,0,0,0,.266-.07l.045-.018a1.6,1.6,0,0,0,.68-.977,1.963,1.963,0,0,0-.069-1.18,15.827,15.827,0,0,1,4.141-.6,8.923,8.923,0,0,1,2.93.43,1.5,1.5,0,1,1,2.647,1.358l.895.725h4.726v-.136c0-.967-1.741-4.54-9.693-4.725" transform="translate(-29.349 -30.188)" fill="#fff"/>
    <path id="Path_65" data-name="Path 65" d="M59.846,43.563a1.064,1.064,0,0,0-1.411.514,1.012,1.012,0,0,0-.1.4l-.575.209.382,1.053c-.449.765-.961,1.524-1.263,1.959a14.247,14.247,0,0,0-3.224-.546c-.07-.369-.3-1.634-.42-2.871l.793-.791-.432-.432a1.015,1.015,0,0,0,.085-.4,1.062,1.062,0,1,0-2.124,0,1.043,1.043,0,0,0,.082.4l-.431.431.795.795c-.111,1.183-.355,2.505-.425,2.876a12.118,12.118,0,0,0-3.134.539c-.3-.432-.808-1.188-1.262-1.961l.382-1.052-.575-.209a1.044,1.044,0,0,0-.095-.4,1.066,1.066,0,0,0-.963-.612,1.06,1.06,0,0,0-.961,1.509,1.033,1.033,0,0,0,.246.332l-.207.574,1.061.386a36.938,36.938,0,0,1,1.03,4.8c.2,1.135,2.544,1.958,5.564,1.958,3.059,0,5.342-.8,5.553-1.958.025-.142.06-.359.1-.626a21.89,21.89,0,0,1,.93-4.175l1.067-.387-.209-.574a1.034,1.034,0,0,0,.246-.332,1.063,1.063,0,0,0-.512-1.411m-7.179,8.514c-2.7,0-4.821-.441-4.821-1,0-.692,2.422-1,4.821-1,2.32,0,4.821.314,4.821,1,0,.564-2.118,1-4.821,1" transform="translate(-28.744 -37.377)" fill="#fff"/>
  </g>
</svg>
