<svg xmlns="http://www.w3.org/2000/svg" xmlns:xlink="http://www.w3.org/1999/xlink" width="185" height="68.312" viewBox="0 0 185 68.312">
  <defs>
    <clipPath id="clip-path">
      <rect id="Rectangle_808" data-name="Rectangle 808" width="185" height="68.312" fill="none"/>
    </clipPath>
  </defs>
  <g id="MDX_Logo_White" data-name="MDX Logo White" transform="translate(0)" clip-path="url(#clip-path)">
    <path id="Path_37" data-name="Path 37" d="M91.348,40.5,61.485,38.219,32.172,40.4s-.206,6.41-.206,14.354c0,40.692,29.7,51.531,29.7,51.531S91.556,95.552,91.556,54.858c0-7.942-.208-14.354-.208-14.354" transform="translate(-31.964 -38.217)" fill="#ed1d24"/>
    <g id="Text" transform="translate(66.26 0.002)">
      <path id="Path_38" data-name="Path 38" d="M88.977,56.782c-.025-.42-1.089-11.253-1.089-11.253a20.193,20.193,0,0,1-.074-2.052h-.05s-.172.963-.493,2.052c0,0-3.044,10.687-3.242,11.253H82.248c-.172-.493-3.214-11.279-3.214-11.279-.3-1.063-.495-2.026-.495-2.026h-.05a19.751,19.751,0,0,1-.074,2.026S77.35,56.288,77.327,56.782H74.679l1.9-17.016h3.165l3.045,10.907c.295,1.087.445,1.906.445,1.906h.048a15.876,15.876,0,0,1,.445-1.906l3.141-10.907h3.166l1.9,17.016Z" transform="translate(-74.679 -37.366)" fill="#fff"/>
      <path id="Path_39" data-name="Path 39" d="M89.2,41.723a1.5,1.5,0,1,1,1.657-1.485A1.564,1.564,0,0,1,89.2,41.723m-1.508,2.3h3.017V57.355H87.7Z" transform="translate(-67.585 -37.938)" fill="#fff"/>
      <path id="Path_40" data-name="Path 40" d="M97.615,57.883c-3.934,0-6.208-2.522-6.208-6.751,0-4.353,2.373-6.951,5.839-6.951a7.185,7.185,0,0,1,2,.247V38.219h3.019v18.7a9.523,9.523,0,0,1-4.651.963m1.632-11.822a4.694,4.694,0,0,0-1.336-.174c-2.622,0-3.512,2.251-3.512,5.071,0,3.017.965,5,3.292,5a2.89,2.89,0,0,0,1.556-.3Z" transform="translate(-65.458 -38.219)" fill="#fff"/>
      <path id="Path_41" data-name="Path 41" d="M106.369,57.883c-3.932,0-6.208-2.522-6.208-6.751,0-4.353,2.373-6.951,5.836-6.951a7.216,7.216,0,0,1,2,.247V38.219h3.019v18.7a9.523,9.523,0,0,1-4.651.963M108,46.061a4.7,4.7,0,0,0-1.336-.174c-2.622,0-3.512,2.251-3.512,5.071,0,3.017.963,5,3.289,5a2.9,2.9,0,0,0,1.559-.3Z" transform="translate(-60.632 -38.219)" fill="#fff"/>
      <rect id="Rectangle_807" data-name="Rectangle 807" width="3.016" height="19.415" transform="translate(53.872)" fill="#fff"/>
      <path id="Path_42" data-name="Path 42" d="M116.055,50c.245,2.473,1.433,3.711,3.635,3.711a7.268,7.268,0,0,0,3.363-.741l.718,1.9a9.1,9.1,0,0,1-4.4.94c-3.785,0-6.185-2.449-6.185-6.951,0-4.353,2.2-6.877,5.693-6.877,3.534,0,5.462,2.35,5.339,6.827Zm2.719-6.16c-1.754,0-2.966,1.436-2.893,4.627l5.516-.842c0-2.695-.966-3.785-2.623-3.785" transform="translate(-53.453 -36.145)" fill="#fff"/>
      <path id="Path_43" data-name="Path 43" d="M125.175,55.784a6.767,6.767,0,0,1-3.687-.965l.794-1.93a4.149,4.149,0,0,0,2.5.768,1.881,1.881,0,0,0,2.051-1.882c0-1.137-.593-1.68-1.953-2.2-2.522-.965-3.04-2.35-3.04-3.735a3.931,3.931,0,0,1,4.229-3.859,6.141,6.141,0,0,1,3.464.94l-.742,1.758a3.529,3.529,0,0,0-2.128-.743,1.744,1.744,0,0,0-1.9,1.756c0,1.089.816,1.632,1.978,2.1,2.6,1.039,3.191,2.375,3.191,3.931,0,2.178-1.83,4.058-4.748,4.058" transform="translate(-48.876 -36.145)" fill="#fff"/>
      <path id="Path_44" data-name="Path 44" d="M131.185,50c.247,2.473,1.433,3.711,3.633,3.711a7.293,7.293,0,0,0,3.366-.741l.717,1.9a9.1,9.1,0,0,1-4.4.94c-3.783,0-6.182-2.449-6.182-6.951,0-4.353,2.2-6.877,5.687-6.877,3.538,0,5.47,2.35,5.343,6.827Zm2.721-6.16c-1.759,0-2.969,1.436-2.895,4.627l5.513-.842c0-2.695-.963-3.785-2.618-3.785" transform="translate(-45.112 -36.145)" fill="#fff"/>
      <path id="Path_45" data-name="Path 45" d="M144.305,55.473l-2.5-4.848h-.048l-2.55,4.848h-3.067l4.132-6.9-3.711-6.431h3.168l2.249,4.353h.048l2.35-4.353h2.843l-3.782,6.233,4.179,7.1Z" transform="translate(-40.798 -36.057)" fill="#fff"/>
      <path id="Path_46" data-name="Path 46" d="M80.694,72.469c-3.338,0-5.616-2.128-5.616-5.22V55.18h3.141V67.225a2.571,2.571,0,0,0,2.6,2.819,2.539,2.539,0,0,0,2.572-2.819V55.18h2.918V67.249c0,3.092-2.274,5.22-5.614,5.22" transform="translate(-74.459 -28.869)" fill="#fff"/>
      <path id="Path_47" data-name="Path 47" d="M91.98,70.974V61.526c0-1.087-.5-2.226-2.4-2.226a4.994,4.994,0,0,0-2.079.372v11.3H84.486V58.36A12.275,12.275,0,0,1,89.7,57.4c3.982,0,5.294,1.928,5.294,4.08v9.5Z" transform="translate(-69.273 -27.647)" fill="#fff"/>
      <path id="Path_48" data-name="Path 48" d="M94.961,57.137a1.5,1.5,0,1,1,1.657-1.485,1.564,1.564,0,0,1-1.657,1.485m-1.508,2.3h3.017V72.767H93.453Z" transform="translate(-64.413 -29.441)" fill="#fff"/>
      <path id="Path_49" data-name="Path 49" d="M104,70.886h-2.87L96.78,57.555H100l2.349,8.609a9.518,9.518,0,0,1,.323,1.829h.05a11.569,11.569,0,0,1,.346-1.829l2.4-8.609h2.82Z" transform="translate(-62.496 -27.56)" fill="#fff"/>
      <path id="Path_50" data-name="Path 50" d="M107.89,65.409c.247,2.474,1.433,3.709,3.633,3.709a7.283,7.283,0,0,0,3.365-.74l.72,1.9a9.109,9.109,0,0,1-4.406.94c-3.783,0-6.183-2.449-6.183-6.95,0-4.354,2.2-6.875,5.69-6.875,3.535,0,5.468,2.349,5.342,6.825Zm2.721-6.158c-1.758,0-2.971,1.435-2.893,4.626l5.515-.841c0-2.7-.965-3.785-2.622-3.785" transform="translate(-57.954 -27.647)" fill="#fff"/>
      <path id="Path_51" data-name="Path 51" d="M119.738,59.619a3.646,3.646,0,0,0-2.819.1V70.97H113.9V58.358c1.385-.669,3.067-1.041,6.433-.942Z" transform="translate(-53.058 -27.645)" fill="#fff"/>
      <path id="Path_52" data-name="Path 52" d="M122.481,71.2a6.775,6.775,0,0,1-3.684-.963l.79-1.931a4.143,4.143,0,0,0,2.5.768,1.882,1.882,0,0,0,2.054-1.88c0-1.137-.594-1.682-1.953-2.2-2.524-.965-3.044-2.349-3.044-3.734a3.93,3.93,0,0,1,4.23-3.858,6.107,6.107,0,0,1,3.461.938l-.74,1.758a3.511,3.511,0,0,0-2.128-.743,1.742,1.742,0,0,0-1.9,1.756c0,1.087.816,1.632,1.978,2.1,2.6,1.039,3.191,2.377,3.191,3.934,0,2.175-1.83,4.055-4.75,4.055" transform="translate(-50.359 -27.647)" fill="#fff"/>
      <path id="Path_53" data-name="Path 53" d="M127.568,57.137a1.5,1.5,0,1,1,1.655-1.485,1.565,1.565,0,0,1-1.655,1.485m-1.512,2.3h3.017V72.767h-3.017Z" transform="translate(-46.439 -29.441)" fill="#fff"/>
      <path id="Path_54" data-name="Path 54" d="M134.768,72.38a3.369,3.369,0,0,1-3.662-3.611V60.829h-1.483V58.9h1.483V55.957l3.02-.841V58.9H136.3v1.93h-2.175v7.792c0,1.039.419,1.731,1.458,1.731a2.33,2.33,0,0,0,.717-.123v1.879a3.961,3.961,0,0,1-1.533.271" transform="translate(-44.391 -28.905)" fill="#fff"/>
      <path id="Path_55" data-name="Path 55" d="M140.272,76.205H137.08l2.175-5.319-4.4-13.33h3.219l2.3,8.633a8.3,8.3,0,0,1,.274,1.9h.05a11.246,11.246,0,0,1,.368-1.9l2.474-8.633h2.822Z" transform="translate(-41.509 -27.56)" fill="#fff"/>
      <path id="Path_56" data-name="Path 56" d="M75.222,88.141V71.126H77.5V86.607h5.119v1.534Z" transform="translate(-74.38 -20.079)" fill="#fff"/>
      <path id="Path_57" data-name="Path 57" d="M86.357,87.169c-3.638,0-5.22-2.994-5.22-6.9,0-3.982,1.609-6.926,5.2-6.926,3.659,0,5.218,2.944,5.218,6.926,0,3.908-1.582,6.9-5.194,6.9m0-12.443c-2.547,0-3.044,2.845-3.044,5.541s.544,5.392,3.044,5.392c2.549,0,3.017-2.721,3.017-5.392s-.468-5.541-3.017-5.541" transform="translate(-71.119 -18.858)" fill="#fff"/>
      <path id="Path_58" data-name="Path 58" d="M97.274,86.92V77.347c0-1.235-.518-2.6-2.794-2.6a5.61,5.61,0,0,0-2.524.47v11.7H89.78V74.281a11.119,11.119,0,0,1,4.874-.938c3.707,0,4.8,2.052,4.8,3.957V86.92Z" transform="translate(-66.355 -18.858)" fill="#fff"/>
      <path id="Path_59" data-name="Path 59" d="M103.8,89.243c-3.807,0-5.861-2.671-5.861-6.7,0-4.427,2.349-7,5.786-7a7.549,7.549,0,0,1,2.1.3V69.579h2.153V88.3a8.22,8.22,0,0,1-4.182.94m2.029-12.194a6.28,6.28,0,0,0-1.658-.247c-3.09,0-4.078,2.67-4.078,5.564,0,3.141,1.087,5.442,3.807,5.442a3.6,3.6,0,0,0,1.93-.371Z" transform="translate(-61.854 -20.932)" fill="#fff"/>
      <path id="Path_60" data-name="Path 60" d="M111.565,87.169c-3.636,0-5.218-2.994-5.218-6.9,0-3.982,1.609-6.926,5.194-6.926,3.659,0,5.22,2.944,5.22,6.926,0,3.908-1.584,6.9-5.2,6.9m0-12.443c-2.547,0-3.044,2.845-3.044,5.541s.546,5.392,3.044,5.392c2.55,0,3.019-2.721,3.019-5.392s-.468-5.541-3.019-5.541" transform="translate(-57.222 -18.858)" fill="#fff"/>
      <path id="Path_61" data-name="Path 61" d="M122.483,86.92V77.347c0-1.235-.518-2.6-2.794-2.6a5.61,5.61,0,0,0-2.524.47v11.7H114.99V74.281a11.1,11.1,0,0,1,4.871-.938c3.711,0,4.8,2.052,4.8,3.957V86.92Z" transform="translate(-52.458 -18.858)" fill="#fff"/>
    </g>
    <path id="Path_62" data-name="Path 62" d="M59.62,55.2A36.581,36.581,0,0,0,46.4,57.972a2.194,2.194,0,0,1-.029-1.548.929.929,0,0,0-.087-1.857.5.5,0,0,0-.133.023,1.137,1.137,0,0,0-.158.031.851.851,0,0,0-.149.059l-.057.025a1.023,1.023,0,0,0-.107.079.994.994,0,0,0-.1.087,3.188,3.188,0,0,0-.72,3.382,1.223,1.223,0,0,0-.687.836,1.16,1.16,0,0,0-.945-.079,1.208,1.208,0,0,0-.7.866,1.133,1.133,0,0,0-.952-.1,1.166,1.166,0,0,0-.69.886,1.1,1.1,0,0,0-.965-.118,1.147,1.147,0,0,0-.673.914,1.078,1.078,0,0,0-.982-.149,1.686,1.686,0,0,0,1.168,3.009,1.1,1.1,0,0,0,.634-.824,1.145,1.145,0,0,0,1.069.186,1.12,1.12,0,0,0,.648-.791,1.172,1.172,0,0,0,1.053.154,1.143,1.143,0,0,0,.659-.774,1.188,1.188,0,0,0,1.044.135,1.167,1.167,0,0,0,.667-.752,1.218,1.218,0,0,0,1.038.115.875.875,0,0,0,.164-.085,1.925,1.925,0,0,1-.09,1.492.112.112,0,0,0-.033,0,.938.938,0,1,0,.453,1.739l.065-.025a2.763,2.763,0,0,0,1.19-1.714,4,4,0,0,0-.177-2.273,30.788,30.788,0,0,1,8.073-1.111,22.725,22.725,0,0,1,8.381,1.436c.873-1.413,2.355-2.1,3.431-1.533,1.1.583,1.356,2.265.614,3.815l1.624,1.525h9.63V64.86c0-1.5-3.467-9.205-19.944-9.661" transform="translate(-28.87 -29.206)" fill="#fff"/>
    <path id="Path_63" data-name="Path 63" d="M58.21,63.754c-.095,0-.189,0-.285,0-3.751,0-8.459,1.506-10.471,2.217A1.827,1.827,0,0,1,47.4,64.68a.789.789,0,0,0-.09-1.576.455.455,0,0,0-.115.019.609.609,0,0,0-.135.026.691.691,0,0,0-.116.047l-.059.023c-.006.006-.043.031-.095.071a.628.628,0,0,0-.078.068,2.628,2.628,0,0,0-.572,2.912.6.6,0,0,0-.1.029,1.044,1.044,0,0,0-.6.692.988.988,0,0,0-.783-.051,1.022,1.022,0,0,0-.594.707.969.969,0,0,0-.786-.067.994.994,0,0,0-.588.724.945.945,0,0,0-.8-.082.968.968,0,0,0-.568.748.911.911,0,0,0-.816-.107.876.876,0,0,0-.479.478,1.56,1.56,0,0,0,.016,1.179,1.251,1.251,0,0,0,1.458.912.917.917,0,0,0,.534-.676.975.975,0,0,0,.892.14.925.925,0,0,0,.537-.652,1,1,0,0,0,.886.119.956.956,0,0,0,.557-.631,1,1,0,0,0,.867.1.988.988,0,0,0,.563-.616,1.034,1.034,0,0,0,.864.082.9.9,0,0,0,.226-.13,1.431,1.431,0,0,1-.11.971h-.011a.793.793,0,1,0,0,1.584.851.851,0,0,0,.385-.1l.053-.022a2.283,2.283,0,0,0,.988-1.421,2.872,2.872,0,0,0-.084-1.647,25.539,25.539,0,0,1,6.86-1,15.352,15.352,0,0,1,5.535.89c.839-1.3,2.218-1.917,3.227-1.384.987.52,1.26,1.964.707,3.362l1.471,1.288H74.2v-.169c0-1.2-2.778-7.4-15.987-7.762" transform="translate(-27.58 -24.5)" fill="#fff"/>
    <path id="Path_64" data-name="Path 64" d="M56.513,71.273l-.13,0a21.674,21.674,0,0,0-7.654,1.516l-.211.073a1.226,1.226,0,0,1-.062-1.078.693.693,0,0,0-.1-1.382.268.268,0,0,0-.093.017.715.715,0,0,0-.127.023c-.037.014-.074.028-.093.037L48,70.5c-.011.006-.043.028-.092.064l-.074.064a2.258,2.258,0,0,0-.493,2.442l-.014,0a.837.837,0,0,0-.476.543.8.8,0,0,0-.619-.034.817.817,0,0,0-.473.557.766.766,0,0,0-.624-.048.8.8,0,0,0-.468.569.754.754,0,0,0-.63-.061.786.786,0,0,0-.462.58.735.735,0,0,0-.634-.071.722.722,0,0,0-.4.4,1.264,1.264,0,0,0,.012.96,1.025,1.025,0,0,0,1.2.743.749.749,0,0,0,.433-.52.769.769,0,0,0,.693.1.757.757,0,0,0,.439-.509.789.789,0,0,0,.69.084.766.766,0,0,0,.444-.493.755.755,0,0,0,1.134-.4.844.844,0,0,0,.684.051,1.087,1.087,0,0,0,.133-.07,1.257,1.257,0,0,1-.059.889.693.693,0,1,0,.009,1.385.716.716,0,0,0,.33-.087l.056-.022a1.982,1.982,0,0,0,.844-1.213A2.437,2.437,0,0,0,49.5,74.93a19.65,19.65,0,0,1,5.141-.741,11.077,11.077,0,0,1,3.638.534,1.864,1.864,0,1,1,3.286,1.686l1.111.9h5.867v-.169c0-1.2-2.161-5.636-12.033-5.865" transform="translate(-26.183 -20.478)" fill="#fff"/>
    <path id="Path_65" data-name="Path 65" d="M63.46,44.038a1.321,1.321,0,0,0-1.751.638,1.256,1.256,0,0,0-.119.5l-.714.259.475,1.308c-.557.949-1.193,1.893-1.568,2.432a17.689,17.689,0,0,0-4-.678c-.087-.458-.374-2.029-.521-3.565l.985-.982-.537-.537a1.259,1.259,0,0,0,.105-.5,1.319,1.319,0,0,0-2.637,0,1.294,1.294,0,0,0,.1.5l-.535.535.987.987c-.138,1.469-.441,3.11-.527,3.571a15.044,15.044,0,0,0-3.891.669c-.371-.537-1-1.475-1.567-2.434l.475-1.306-.714-.259a1.3,1.3,0,0,0-.118-.5,1.324,1.324,0,0,0-1.2-.76A1.316,1.316,0,0,0,45,45.79a1.283,1.283,0,0,0,.306.413l-.257.712,1.317.479a45.858,45.858,0,0,1,1.278,5.961c.253,1.409,3.158,2.431,6.908,2.431,3.8,0,6.632-1,6.894-2.431.031-.177.074-.445.127-.777A27.171,27.171,0,0,1,62.725,47.4l1.325-.481-.259-.712a1.283,1.283,0,0,0,.306-.413,1.32,1.32,0,0,0-.636-1.751m-8.912,10.57c-3.355,0-5.985-.548-5.985-1.247,0-.859,3.006-1.244,5.985-1.244,2.881,0,5.985.389,5.985,1.244,0,.7-2.629,1.247-5.985,1.247" transform="translate(-24.848 -36.358)" fill="#fff"/>
  </g>
</svg>
