<svg xmlns="http://www.w3.org/2000/svg" width="94" height="75.2" viewBox="0 0 94 75.2">
  <path id="chalkboard-teacher-solid" d="M30.549,51.7a3.36,3.36,0,0,0-1.037.16A19.375,19.375,0,0,1,23.5,52.875a19.391,19.391,0,0,1-6.015-1.015,3.351,3.351,0,0,0-1.035-.16A16.451,16.451,0,0,0,0,68.241,7.032,7.032,0,0,0,7.049,75.2h32.9A7.032,7.032,0,0,0,47,68.241,16.451,16.451,0,0,0,30.549,51.7ZM23.5,47A14.1,14.1,0,1,0,9.4,32.9,14.1,14.1,0,0,0,23.5,47ZM86.948,0h-56.4A7.178,7.178,0,0,0,23.5,7.284V14.1a18.587,18.587,0,0,1,9.4,2.614V9.4H84.6V51.7H75.2V42.3H56.4v9.4H45.2a18.719,18.719,0,0,1,5.829,9.4H86.948A7.178,7.178,0,0,0,94,53.816V7.284A7.178,7.178,0,0,0,86.948,0Z" transform="translate(0.002)" fill="#fff"/>
</svg>
