<svg xmlns="http://www.w3.org/2000/svg" width="94" height="75.2" viewBox="0 0 94 75.2">
  <path id="user-check-solid" d="M32.9,37.6A18.8,18.8,0,1,0,14.1,18.8,18.8,18.8,0,0,0,32.9,37.6Zm13.16,4.7H43.607a25.567,25.567,0,0,1-21.414,0H19.74A19.745,19.745,0,0,0,0,62.04v6.11A7.052,7.052,0,0,0,7.05,75.2h51.7a7.052,7.052,0,0,0,7.05-7.05V62.04A19.745,19.745,0,0,0,46.06,42.3ZM93.5,23.441l-4.083-4.127A1.742,1.742,0,0,0,86.95,19.3L71.557,34.574l-6.683-6.727a1.742,1.742,0,0,0-2.467-.015l-4.127,4.1a1.742,1.742,0,0,0-.015,2.468l12,12.088a1.742,1.742,0,0,0,2.468.015L93.486,25.909A1.755,1.755,0,0,0,93.5,23.441Z" fill="#fff"/>
</svg>
