<svg xmlns="http://www.w3.org/2000/svg" width="97.17" height="85.013" viewBox="0 0 97.17 85.013">
  <path id="comment-regular" d="M48.525,32C21.693,32-.054,49.667-.054,71.47c0,9.033,3.776,17.306,10.038,23.967a48.153,48.153,0,0,1-8.8,13.89A4.556,4.556,0,0,0,4.5,117.013a46.043,46.043,0,0,0,26.4-8.786,58.608,58.608,0,0,0,17.629,2.714c26.832,0,48.579-17.667,48.579-39.47S75.357,32,48.525,32Zm0,69.832a49.311,49.311,0,0,1-14.877-2.3L29.34,98.17l-3.7,2.619a40.807,40.807,0,0,1-10.911,5.5A47.6,47.6,0,0,0,18.5,98.663l2.011-5.332-3.909-4.137c-3.435-3.662-7.552-9.716-7.552-17.724,0-16.737,17.7-30.362,39.47-30.362S88,54.733,88,71.47,70.29,101.832,48.525,101.832Z" transform="translate(0.066 -32)" fill="#fff"/>
</svg>
